<?xml version="1.0" encoding="utf-8"?>

<!DOCTYPE svg PUBLIC "-//W3C//DTD SVG 1.1//EN" "http://www.w3.org/Graphics/SVG/1.1/DTD/svg11.dtd">
<!-- Uploaded to: SVG Repo, www.svgrepo.com, Generator: SVG Repo Mixer Tools -->
<svg height="800px" width="800px" version="1.1" id="_x32_" xmlns="http://www.w3.org/2000/svg" xmlns:xlink="http://www.w3.org/1999/xlink" 
	 viewBox="0 0 512 512"  xml:space="preserve">
<style type="text/css">
	.st0{fill:#000000;}
</style>
<g>
	<path class="st0" d="M452.01,113.752V64.893H294.666v48.859H217.33V64.893H59.988v48.859H0v333.356h512V154.807v-41.055H452.01z
		 M470.942,406.049H41.055V154.807h59.99v-48.856h75.227v48.856h159.453v-48.856h75.226v48.856h59.99V406.049z"/>
	<polygon class="st0" points="178.248,207.041 133.234,207.041 133.234,252.055 88.221,252.055 88.221,297.068 133.234,297.068 
		133.234,342.082 178.248,342.082 178.248,297.068 223.262,297.068 223.262,252.055 178.248,252.055 	"/>
	<polygon class="st0" points="333.75,252.055 288.736,252.055 288.736,297.068 333.75,297.068 378.764,297.068 423.777,297.068 
		423.777,252.055 378.764,252.055 	"/>
</g>
</svg>