<?xml version="1.0" encoding="iso-8859-1"?>
<!-- Uploaded to: SVG Repo, www.svgrepo.com, Generator: SVG Repo Mixer Tools -->
<svg version="1.1" id="Layer_1" xmlns="http://www.w3.org/2000/svg" xmlns:xlink="http://www.w3.org/1999/xlink" 
	 viewBox="0 0 512 512" xml:space="preserve">
<path style="fill:#828186;" d="M319.572,486.447c-91.052,0-165.129-74.077-165.129-165.129v-47.023
	c0-20.353-16.56-36.913-36.912-36.913H36.629v-90.351h80.902c70.173,0,127.263,57.091,127.263,127.264v47.023
	c0,41.233,33.546,74.778,74.778,74.778s74.778-33.546,74.778-74.778V62.182h90.351v259.135
	C484.701,412.37,410.625,486.447,319.572,486.447z"/>
<g>
	<rect x="394.346" y="62.182" style="fill:#555558;" width="90.351" height="90.632"/>
	<path style="fill:#555558;" d="M244.794,293.304h-90.351v28.014c0,15.891,2.262,31.261,6.472,45.815h99.622
		c-9.853-12.667-15.742-28.562-15.742-45.815v-28.014H244.794z"/>
	<path style="fill:#555558;" d="M154.443,274.295v15.429h90.351v-15.429c0-70.173-57.09-127.264-127.263-127.264H36.629v90.351
		h80.902C137.884,237.382,154.443,253.941,154.443,274.295z"/>
</g>
<g>
	<path style="fill:#DFDEE1;" d="M36.629,266.378C16.4,266.378,0,249.978,0,229.749v-73.258c0-20.229,16.4-36.629,36.629-36.629
		s36.629,16.4,36.629,36.629v73.258C73.258,249.978,56.858,266.378,36.629,266.378z"/>
	<path style="fill:#DFDEE1;" d="M232.4,333.531h-69.595c-20.229,0-36.629-16.4-36.629-36.629c0-20.229,16.4-36.629,36.629-36.629
		H232.4c20.229,0,36.629,16.4,36.629,36.629C269.029,317.131,252.629,333.531,232.4,333.531z"/>
</g>
<path style="fill:#BFBDC3;" d="M475.371,98.811h-73.258c-20.229,0-36.629-16.4-36.629-36.629s16.4-36.629,36.629-36.629h73.258
	c20.229,0,36.629,16.4,36.629,36.629S495.6,98.811,475.371,98.811z"/>
</svg>